<svg xmlns="http://www.w3.org/2000/svg" version="1.1" xmlns:xlink="http://www.w3.org/1999/xlink" width="1000" height="1000"><g clip-path="url(#SvgjsClipPath1015)"><rect width="1000" height="1000" fill="#ffffff"></rect><g transform="matrix(1.4,0,0,1.4,150,150)"><svg xmlns="http://www.w3.org/2000/svg" version="1.1" xmlns:xlink="http://www.w3.org/1999/xlink" width="500" height="500"><svg xmlns="http://www.w3.org/2000/svg" viewBox="0 0 500 500">
  <path fill="#f59e0a" d="M 165.021 0.95 C 149.609 0.95 132.195 2.645 115.533 8.549 C 15.185 42.719 -17.066 154.429 11.286 246.507 L 11.411 246.901 L 11.536 247.265 C 27.148 293.045 52.329 334.604 85.107 368.769 L 85.28 368.951 L 85.477 369.161 C 132.172 415.823 183.007 456.525 238.042 491.84 L 250.981 500.145 L 264 491.99 C 319.158 457.465 370.968 415.638 417.083 369.345 L 417.234 369.212 L 417.382 369.059 C 450.41 334.816 475.591 292.968 491.004 247.16 L 491.132 246.771 L 491.231 246.38 C 519.056 154.507 486.956 42.665 387.306 8.996 C 370.994 3.346 354.155 0.95 337.695 0.95 C 300.668 0.95 273.27 17.123 251.158 33.579 C 229.199 17.225 201.618 0.95 165.021 0.95 Z" style="stroke-width: 1;"></path>
  <g id="camera" transform="matrix(2.846263, 0, 0, 2.838351, -113.572908, -134.145647)" style="">
    <rect x="76" y="92" width="104" height="72" rx="12" fill="#FFFFFF"></rect>
    <rect x="96" y="84" width="64" height="12" rx="6" fill="#FFFFFF"></rect>
    <circle cx="128" cy="128" r="22" fill="#f59e0a"></circle>
    <circle cx="128" cy="128" r="10" fill="#FFFFFF"></circle>
    <circle cx="164" cy="110" r="5" fill="#f59e0a"></circle>
  </g>
</svg></svg></g></g><defs><clipPath id="SvgjsClipPath1015"><rect width="1000" height="1000" x="0" y="0" rx="350" ry="350"></rect></clipPath></defs></svg>